<svg width="90" height="44" viewBox="0 0 90 44" fill="none" xmlns="http://www.w3.org/2000/svg">
<g id="Button">
<rect width="90" height="44" rx="10" fill="#00C19E" fill-opacity="0.1"/>
<path id="&#229;&#143;&#150;&#230;&#182;&#136;" d="M36.216 26.704V29.616H35.08V26.912C34.6213 26.9973 34.1467 27.0827 33.656 27.168C33.176 27.2533 32.7013 27.3333 32.232 27.408C31.7627 27.4827 31.3147 27.552 30.888 27.616C30.472 27.6693 30.0987 27.7173 29.768 27.76L29.528 26.592C29.7733 26.5707 30.04 26.544 30.328 26.512C30.616 26.48 30.9147 26.4373 31.224 26.384V17.024H30.216V15.888H37.256V17.024H36.216V25.52C36.4933 25.4667 36.7493 25.4187 36.984 25.376C37.2187 25.3227 37.432 25.2693 37.624 25.216L37.64 25.824L37.672 26.416L36.216 26.704ZM40.984 24.896C41.4 25.504 41.88 26.0907 42.424 26.656C42.9787 27.2107 43.608 27.776 44.312 28.352L43.48 29.28C42.808 28.7147 42.2053 28.1653 41.672 27.632C41.1493 27.0987 40.6853 26.5493 40.28 25.984C39.896 26.5387 39.448 27.0827 38.936 27.616C38.4347 28.1493 37.848 28.704 37.176 29.28L36.344 28.416C37.0693 27.8293 37.6987 27.2587 38.232 26.704C38.7653 26.1387 39.2293 25.552 39.624 24.944C39.3573 24.496 39.1227 24.0267 38.92 23.536C38.7173 23.0347 38.536 22.5067 38.376 21.952C38.216 21.3973 38.0773 20.8107 37.96 20.192C37.8533 19.5627 37.7573 18.8907 37.672 18.176L38.744 18.016C38.8613 19.1893 39.048 20.24 39.304 21.168C39.56 22.096 39.8907 22.96 40.296 23.76C40.7013 22.928 41.0267 22.0373 41.272 21.088C41.528 20.128 41.752 19.0347 41.944 17.808H37.48V16.624H43.096V17.808C42.9787 18.5547 42.8507 19.2533 42.712 19.904C42.584 20.5547 42.4347 21.168 42.264 21.744C42.104 22.32 41.9173 22.8693 41.704 23.392C41.4907 23.9147 41.2507 24.416 40.984 24.896ZM32.36 17.024V19.296H35.08V17.024H32.36ZM32.36 22.576H35.08V20.368H32.36V22.576ZM32.36 26.208C32.808 26.144 33.2613 26.0747 33.72 26C34.1787 25.9147 34.632 25.8293 35.08 25.744V23.648H32.36V26.208ZM55.118 19.568H58.606V27.6C58.606 27.9413 58.5793 28.2187 58.526 28.432C58.4727 28.6453 58.3767 28.8107 58.238 28.928C58.11 29.056 57.9233 29.1467 57.678 29.2C57.4433 29.264 57.1393 29.312 56.766 29.344L55.662 29.44L55.278 28.288L56.43 28.176C56.6647 28.1547 56.8513 28.128 56.99 28.096C57.1287 28.064 57.23 28.016 57.294 27.952C57.3687 27.888 57.4113 27.7973 57.422 27.68C57.4433 27.5627 57.454 27.408 57.454 27.216V26.144H51.63V29.424H50.478V19.568H53.966V15.072L55.118 15.12V19.568ZM46.926 15.616C47.1287 15.744 47.3527 15.8933 47.598 16.064C47.854 16.2347 48.11 16.416 48.366 16.608C48.622 16.8 48.8673 16.992 49.102 17.184C49.3473 17.376 49.55 17.5467 49.71 17.696L49.054 18.8C48.8727 18.6187 48.6593 18.4213 48.414 18.208C48.1793 17.9947 47.934 17.7867 47.678 17.584C47.422 17.3813 47.1713 17.1893 46.926 17.008C46.6807 16.8267 46.462 16.6773 46.27 16.56L46.926 15.616ZM52.222 19.056C52.0727 18.8427 51.902 18.6133 51.71 18.368C51.518 18.112 51.3207 17.8667 51.118 17.632C50.9153 17.3867 50.7127 17.1573 50.51 16.944C50.318 16.72 50.1367 16.528 49.966 16.368L50.734 15.632C50.894 15.7813 51.0753 15.968 51.278 16.192C51.4913 16.416 51.7047 16.6507 51.918 16.896C52.142 17.1413 52.35 17.3867 52.542 17.632C52.7447 17.8667 52.91 18.0747 53.038 18.256L52.222 19.056ZM59.102 16.432C58.9527 16.624 58.782 16.8427 58.59 17.088C58.4087 17.3227 58.2113 17.5627 57.998 17.808C57.7953 18.0427 57.5873 18.272 57.374 18.496C57.1713 18.72 56.9793 18.9227 56.798 19.104L55.966 18.368C56.1473 18.1973 56.3393 18.0053 56.542 17.792C56.7553 17.568 56.9633 17.3387 57.166 17.104C57.3687 16.8693 57.566 16.6347 57.758 16.4C57.95 16.1547 58.1207 15.92 58.27 15.696L59.102 16.432ZM48.334 22.416C48.174 22.2133 47.9713 22 47.726 21.776C47.4807 21.5413 47.2247 21.3173 46.958 21.104C46.6913 20.88 46.4247 20.6773 46.158 20.496C45.902 20.304 45.6727 20.144 45.47 20.016L46.126 19.056C46.3287 19.1733 46.558 19.3227 46.814 19.504C47.0807 19.6853 47.3473 19.8827 47.614 20.096C47.8807 20.2987 48.1367 20.5013 48.382 20.704C48.638 20.9067 48.8513 21.088 49.022 21.248L48.334 22.416ZM57.454 20.672H51.63V22.32H57.454V20.672ZM57.454 25.088V23.392H51.63V25.088H57.454ZM49.07 23.92C48.9847 24.2933 48.8673 24.7307 48.718 25.232C48.5687 25.7227 48.4087 26.2293 48.238 26.752C48.078 27.264 47.9073 27.7547 47.726 28.224C47.5553 28.704 47.3953 29.1093 47.246 29.44L46.062 29.072C46.2113 28.752 46.3767 28.352 46.558 27.872C46.75 27.392 46.9313 26.8907 47.102 26.368C47.2727 25.8453 47.4273 25.3387 47.566 24.848C47.7153 24.3467 47.8273 23.9093 47.902 23.536L49.07 23.92Z" fill="#00C19E"/>
</g>
</svg>
