<svg width="26" height="27" viewBox="0 0 26 27" fill="none" xmlns="http://www.w3.org/2000/svg">
<g id="XCircle">
<path id="Vector" d="M16.8248 10.353L14.1487 13.0282L16.8248 15.7034C16.9003 15.7788 16.9602 15.8685 17.0011 15.9671C17.0419 16.0657 17.063 16.1714 17.063 16.2782C17.063 16.385 17.0419 16.4907 17.0011 16.5893C16.9602 16.6879 16.9003 16.7776 16.8248 16.853C16.7494 16.9285 16.6597 16.9884 16.5611 17.0293C16.4625 17.0701 16.3568 17.0911 16.25 17.0911C16.1432 17.0911 16.0375 17.0701 15.9389 17.0293C15.8403 16.9884 15.7506 16.9285 15.6752 16.853L13 14.1769L10.3248 16.853C10.2494 16.9285 10.1597 16.9884 10.0611 17.0293C9.96248 17.0701 9.85676 17.0911 9.75 17.0911C9.64325 17.0911 9.53753 17.0701 9.4389 17.0293C9.34027 16.9884 9.25065 16.9285 9.17516 16.853C9.09967 16.7776 9.03979 16.6879 8.99893 16.5893C8.95808 16.4907 8.93705 16.385 8.93705 16.2782C8.93705 16.1714 8.95808 16.0657 8.99893 15.9671C9.03979 15.8685 9.09967 15.7788 9.17516 15.7034L11.8513 13.0282L9.17516 10.353C9.0227 10.2006 8.93705 9.99381 8.93705 9.7782C8.93705 9.56259 9.0227 9.35581 9.17516 9.20335C9.32762 9.0509 9.5344 8.96525 9.75 8.96525C9.96561 8.96525 10.1724 9.0509 10.3248 9.20335L13 11.8795L15.6752 9.20335C15.7506 9.12786 15.8403 9.06798 15.9389 9.02713C16.0375 8.98627 16.1432 8.96525 16.25 8.96525C16.3568 8.96525 16.4625 8.98627 16.5611 9.02713C16.6597 9.06798 16.7494 9.12786 16.8248 9.20335C16.9003 9.27884 16.9602 9.36846 17.0011 9.46709C17.0419 9.56573 17.063 9.67144 17.063 9.7782C17.063 9.88496 17.0419 9.99067 17.0011 10.0893C16.9602 10.1879 16.9003 10.2776 16.8248 10.353ZM23.5625 13.0282C23.5625 15.1173 22.943 17.1594 21.7824 18.8964C20.6218 20.6334 18.9721 21.9872 17.0421 22.7867C15.1121 23.5861 12.9883 23.7953 10.9394 23.3877C8.89044 22.9802 7.00838 21.9742 5.53119 20.497C4.054 19.0198 3.04802 17.1378 2.64046 15.0888C2.2329 13.0399 2.44208 10.9161 3.24153 8.9861C4.04098 7.05606 5.3948 5.40642 7.13179 4.2458C8.86879 3.08518 10.9109 2.4657 13 2.4657C15.8004 2.46866 18.4853 3.58244 20.4656 5.56265C22.4458 7.54286 23.5595 10.2278 23.5625 13.0282ZM21.9375 13.0282C21.9375 11.2605 21.4133 9.53255 20.4313 8.06279C19.4492 6.59302 18.0534 5.44748 16.4202 4.77102C14.7871 4.09457 12.9901 3.91757 11.2564 4.26243C9.52268 4.60729 7.93017 5.4585 6.68024 6.70843C5.43031 7.95836 4.57909 9.55087 4.23424 11.2846C3.88938 13.0183 4.06637 14.8153 4.74283 16.4484C5.41929 18.0815 6.56483 19.4774 8.0346 20.4595C9.50436 21.4415 11.2323 21.9657 13 21.9657C15.3696 21.963 17.6413 21.0205 19.3168 19.345C20.9923 17.6695 21.9348 15.3977 21.9375 13.0282Z" fill="#16151C"/>
</g>
</svg>
