<svg width="90" height="44" viewBox="0 0 90 44" fill="none" xmlns="http://www.w3.org/2000/svg">
<g id="Button">
<rect width="90" height="44" rx="10" fill="#00C19E"/>
<path id="&#231;&#161;&#174;&#232;&#174;&#164;" d="M43.208 19.152V27.616C43.208 27.936 43.1813 28.1973 43.128 28.4C43.0853 28.6133 43 28.784 42.872 28.912C42.7547 29.04 42.5893 29.136 42.376 29.2C42.1733 29.2747 41.912 29.328 41.592 29.36L40.968 29.424L40.584 28.336L41.288 28.272C41.64 28.24 41.8693 28.1707 41.976 28.064C42.0933 27.9573 42.152 27.728 42.152 27.376V26.048H40.04V29.168H39V26.048H36.824C36.7813 26.3893 36.7227 26.7093 36.648 27.008C36.5733 27.3067 36.4773 27.6 36.36 27.888C36.2427 28.176 36.0987 28.4693 35.928 28.768C35.768 29.0667 35.5813 29.3813 35.368 29.712L34.36 29.12C34.68 28.6507 34.9413 28.2187 35.144 27.824C35.3467 27.4293 35.5013 27.0133 35.608 26.576C35.7253 26.1387 35.8 25.6533 35.832 25.12C35.8747 24.5867 35.896 23.9467 35.896 23.2V20.112C35.8107 20.1973 35.7253 20.2827 35.64 20.368C35.5653 20.4533 35.4853 20.5387 35.4 20.624L34.632 19.856C34.952 19.5467 35.2667 19.1947 35.576 18.8C35.896 18.4053 36.2 17.9947 36.488 17.568C36.7867 17.1307 37.064 16.688 37.32 16.24C37.576 15.792 37.8 15.36 37.992 14.944L39.112 15.312C39.0267 15.504 38.936 15.6907 38.84 15.872C38.744 16.0533 38.648 16.2347 38.552 16.416H42.168V17.376C41.9547 17.6853 41.7307 17.9893 41.496 18.288C41.272 18.5867 41.0373 18.8747 40.792 19.152H43.208ZM31.128 28.176V22.656C30.9893 22.9013 30.8453 23.1413 30.696 23.376C30.5467 23.6107 30.3867 23.8507 30.216 24.096L29.256 23.456C29.9173 22.528 30.4827 21.568 30.952 20.576C31.432 19.5733 31.8053 18.528 32.072 17.44H30.152V16.32H35.288V17.44H33.16C33.0107 18.0587 32.8453 18.6453 32.664 19.2C32.4933 19.7547 32.2907 20.2933 32.056 20.816H34.568V28.176H31.128ZM37.928 17.488C37.7467 17.7867 37.5547 18.0747 37.352 18.352C37.16 18.6187 36.9573 18.8853 36.744 19.152H39.336C39.5813 18.896 39.8213 18.6293 40.056 18.352C40.2907 18.0747 40.52 17.7867 40.744 17.488H37.928ZM39 20.272H36.952V22.08H39V20.272ZM42.152 20.272H40.04V22.08H42.152V20.272ZM32.152 27.024H33.544V21.952H32.152V27.024ZM39 24.96V23.2H36.952V23.52C36.952 23.7867 36.9467 24.0427 36.936 24.288C36.936 24.5227 36.9307 24.7467 36.92 24.96H39ZM42.152 24.96V23.2H40.04V24.96H42.152ZM55.086 17.616C55.1607 18.8853 55.3207 20.0533 55.566 21.12C55.822 22.176 56.1527 23.152 56.558 24.048C56.9633 24.9333 57.4487 25.7493 58.014 26.496C58.59 27.232 59.246 27.9147 59.982 28.544L59.054 29.504C57.9767 28.4693 57.0647 27.3387 56.318 26.112C55.582 24.8747 55.0273 23.4347 54.654 21.792C54.5153 22.496 54.3287 23.1733 54.094 23.824C53.8593 24.4747 53.5607 25.1147 53.198 25.744C52.8353 26.3733 52.398 27.008 51.886 27.648C51.374 28.2773 50.766 28.928 50.062 29.6L49.102 28.688C49.9553 27.9733 50.686 27.2427 51.294 26.496C51.9127 25.7387 52.414 24.912 52.798 24.016C53.1927 23.1093 53.4807 22.096 53.662 20.976C53.8433 19.856 53.934 18.576 53.934 17.136V15.2L55.086 15.232V17.44V17.616ZM49.086 19.312C48.958 19.0773 48.7873 18.816 48.574 18.528C48.3607 18.2293 48.1313 17.936 47.886 17.648C47.6513 17.3493 47.4113 17.072 47.166 16.816C46.9313 16.5493 46.7287 16.3307 46.558 16.16L47.374 15.408C47.5553 15.568 47.7633 15.776 47.998 16.032C48.2433 16.288 48.4887 16.56 48.734 16.848C48.9793 17.1253 49.2087 17.4027 49.422 17.68C49.646 17.9467 49.822 18.1813 49.95 18.384L49.086 19.312ZM51.086 25.824C51.0113 25.8987 50.8673 26.0373 50.654 26.24C50.4407 26.432 50.2113 26.64 49.966 26.864C49.7207 27.088 49.486 27.3067 49.262 27.52C49.038 27.7227 48.878 27.872 48.782 27.968C48.686 28.0533 48.5633 28.1707 48.414 28.32C48.2647 28.48 48.1313 28.6187 48.014 28.736L47.246 27.84C47.438 27.6587 47.5607 27.4933 47.614 27.344C47.6673 27.184 47.694 26.9813 47.694 26.736V21.536H45.47V20.336H48.894V26.368C48.958 26.304 49.07 26.192 49.23 26.032C49.4007 25.872 49.582 25.696 49.774 25.504C49.966 25.312 50.1473 25.1307 50.318 24.96C50.4887 24.7893 50.6113 24.6667 50.686 24.592L51.086 25.824Z" fill="white"/>
</g>
</svg>
