<svg width="40" height="40" viewBox="0 0 40 40" fill="none" xmlns="http://www.w3.org/2000/svg">
<rect width="40" height="40" rx="20" fill="#00C19E" fill-opacity="0.1"/>
<g clip-path="url(#clip0_17_1867)">
<path d="M26.3634 32H13.6355C12.7429 32 11.8867 31.6454 11.2555 31.0141C10.6243 30.3829 10.2697 29.5268 10.2697 28.6341V13.3097C10.2692 12.5347 10.5361 11.7834 11.0253 11.1824C11.5146 10.5815 12.1962 10.1677 12.9552 10.0111C13.017 9.99799 13.0809 9.99721 13.1431 10.0088C13.2053 10.0204 13.2646 10.0441 13.3176 10.0786C13.3706 10.1131 13.4163 10.1577 13.4521 10.2098C13.4879 10.262 13.513 10.3207 13.5262 10.3825C13.5393 10.4444 13.54 10.5083 13.5285 10.5705C13.5169 10.6327 13.4932 10.692 13.4587 10.745C13.4242 10.798 13.3796 10.8437 13.3274 10.8795C13.2753 10.9153 13.2166 10.9404 13.1547 10.9535C12.6121 11.0643 12.1243 11.359 11.7739 11.7879C11.4234 12.2167 11.2318 12.7534 11.2313 13.3073V28.6341C11.2313 29.2717 11.4846 29.8832 11.9355 30.3341C12.3864 30.785 12.9979 31.0383 13.6355 31.0383H26.3634C27.0011 31.0383 27.6126 30.785 28.0634 30.3341C28.5143 29.8832 28.7676 29.2717 28.7676 28.6341V13.3097C28.7679 12.7448 28.5692 12.1979 28.2065 11.7649C27.8439 11.3319 27.3403 11.0404 26.7842 10.9415C26.7217 10.9309 26.662 10.908 26.6085 10.8742C26.5549 10.8404 26.5086 10.7964 26.4721 10.7446C26.4356 10.6929 26.4097 10.6345 26.3958 10.5727C26.382 10.5109 26.3805 10.447 26.3914 10.3846C26.4023 10.3222 26.4255 10.2626 26.4595 10.2092C26.4935 10.1558 26.5377 10.1096 26.5896 10.0734C26.6415 10.0371 26.7001 10.0115 26.762 9.99788C26.8238 9.9843 26.8877 9.98307 26.95 9.99427C27.7291 10.1321 28.4346 10.54 28.9429 11.1463C29.4511 11.7526 29.7295 12.5185 29.7293 13.3097V28.6341C29.7293 29.5268 29.3747 30.3829 28.7435 31.0141C28.1122 31.6454 27.2561 32 26.3634 32Z" fill="#00C19E"/>
<path d="M24.7213 12.8457H15.2776C14.9531 12.8559 14.6298 12.8008 14.327 12.6837C14.0242 12.5666 13.748 12.3898 13.5148 12.1638C13.2817 11.9379 13.0963 11.6674 12.9697 11.3685C12.8431 11.0695 12.7778 10.7481 12.7778 10.4234C12.7778 10.0988 12.8431 9.7774 12.9697 9.47843C13.0963 9.17946 13.2817 8.90897 13.5148 8.68303C13.748 8.4571 14.0242 8.28032 14.327 8.16319C14.6298 8.04606 14.9531 7.99098 15.2776 8.0012H24.7213C25.0458 7.99098 25.3691 8.04606 25.6719 8.16319C25.9747 8.28032 26.2509 8.4571 26.4841 8.68303C26.7172 8.90897 26.9026 9.17946 27.0292 9.47843C27.1558 9.7774 27.2211 10.0988 27.2211 10.4234C27.2211 10.7481 27.1558 11.0695 27.0292 11.3685C26.9026 11.6674 26.7172 11.9379 26.4841 12.1638C26.2509 12.3898 25.9747 12.5666 25.6719 12.6837C25.3691 12.8008 25.0458 12.8559 24.7213 12.8457ZM15.2776 8.96288C15.0808 8.9549 14.8844 8.98676 14.7003 9.05656C14.5161 9.12636 14.3479 9.23266 14.2059 9.36907C14.0638 9.50549 13.9508 9.6692 13.8736 9.85039C13.7964 10.0316 13.7566 10.2265 13.7566 10.4234C13.7566 10.6204 13.7964 10.8153 13.8736 10.9965C13.9508 11.1777 14.0638 11.3414 14.2059 11.4778C14.3479 11.6142 14.5161 11.7205 14.7003 11.7903C14.8844 11.8601 15.0808 11.892 15.2776 11.884H24.7213C24.9181 11.892 25.1145 11.8601 25.2986 11.7903C25.4828 11.7205 25.651 11.6142 25.793 11.4778C25.9351 11.3414 26.0481 11.1777 26.1253 10.9965C26.2025 10.8153 26.2423 10.6204 26.2423 10.4234C26.2423 10.2265 26.2025 10.0316 26.1253 9.85039C26.0481 9.6692 25.9351 9.50549 25.793 9.36907C25.651 9.23266 25.4828 9.12636 25.2986 9.05656C25.1145 8.98676 24.9181 8.9549 24.7213 8.96288H15.2776Z" fill="#00C19E"/>
<path d="M13.7245 17.6541H26.272C26.6455 17.6541 26.8322 17.8408 26.8322 18.2143V18.2167C26.8322 18.5902 26.6455 18.7769 26.272 18.7769H13.7245C13.351 18.7769 13.1643 18.5902 13.1643 18.2167V18.2143C13.1643 17.8408 13.351 17.6541 13.7245 17.6541Z" fill="#00C19E"/>
<path d="M13.7245 21.3422H26.272C26.6455 21.3422 26.8322 21.5289 26.8322 21.9023V21.9047C26.8322 22.2782 26.6455 22.4649 26.272 22.4649H13.7245C13.351 22.4649 13.1643 22.2782 13.1643 21.9047V21.9023C13.1643 21.5289 13.351 21.3422 13.7245 21.3422Z" fill="#00C19E"/>
<path d="M13.7245 25.0278H26.272C26.6455 25.0278 26.8322 25.2145 26.8322 25.588V25.5904C26.8322 25.9638 26.6455 26.1505 26.272 26.1505H13.7245C13.351 26.1505 13.1643 25.9638 13.1643 25.5904V25.588C13.1643 25.2145 13.351 25.0278 13.7245 25.0278Z" fill="#00C19E"/>
</g>
<defs>
<clipPath id="clip0_17_1867">
<rect width="24" height="24" fill="white" transform="translate(8 8)"/>
</clipPath>
</defs>
</svg>
