<svg width="40" height="40" viewBox="0 0 40 40" fill="none" xmlns="http://www.w3.org/2000/svg">
<rect width="40" height="40" rx="20" fill="#00C19E" fill-opacity="0.1"/>
<path d="M20.7438 20.7153C19.625 20.7153 18.5314 20.3835 17.6011 19.762C16.6709 19.1404 15.9459 18.257 15.5178 17.2233C15.0896 16.1897 14.9776 15.0524 15.1959 13.9551C15.4141 12.8578 15.9529 11.8499 16.744 11.0588C17.5351 10.2677 18.543 9.72899 19.6402 9.51073C20.7375 9.29247 21.8749 9.40449 22.9085 9.83263C23.9421 10.2608 24.8255 10.9858 25.4471 11.916C26.0686 12.8462 26.4004 13.9399 26.4004 15.0587C26.3984 16.5583 25.8018 17.9959 24.7414 19.0563C23.681 20.1167 22.2434 20.7133 20.7438 20.7153ZM20.7438 10.4077C19.8239 10.4077 18.9247 10.6804 18.1598 11.1915C17.395 11.7026 16.7989 12.4289 16.4468 13.2788C16.0948 14.1287 16.0027 15.0638 16.1822 15.966C16.3616 16.8682 16.8046 17.6969 17.455 18.3474C18.1055 18.9979 18.9342 19.4408 19.8364 19.6203C20.7386 19.7997 21.6738 19.7076 22.5236 19.3556C23.3735 19.0036 24.0999 18.4075 24.6109 17.6426C25.122 16.8778 25.3948 15.9785 25.3948 15.0587C25.3935 13.8255 24.903 12.6433 24.0311 11.7714C23.1591 10.8994 21.9769 10.409 20.7438 10.4077ZM13.355 30.598C12.4358 30.597 11.5376 30.3235 10.7738 29.8121C10.01 29.3008 9.41501 28.5744 9.06395 27.7249C8.71289 26.8754 8.62155 25.9409 8.80148 25.0396C8.98141 24.1382 9.42453 23.3104 10.0748 22.6608C10.7251 22.0112 11.5534 21.5689 12.455 21.39C13.3566 21.211 14.291 21.3034 15.1401 21.6554C15.9892 22.0073 16.7149 22.6032 17.2254 23.3675C17.736 24.1318 18.0085 25.0303 18.0085 25.9495C18.0072 27.1828 17.5163 28.3652 16.6437 29.2368C15.7712 30.1084 14.5883 30.598 13.355 30.598ZM13.355 22.3016C12.6349 22.3026 11.9313 22.517 11.333 22.9177C10.7347 23.3183 10.2686 23.8873 9.99351 24.5527C9.71841 25.2182 9.64669 25.9502 9.78742 26.6564C9.92814 27.3626 10.275 28.0112 10.7841 28.5204C11.2933 29.0295 11.9419 29.3764 12.6481 29.5171C13.3543 29.6578 14.0863 29.5861 14.7518 29.311C15.4172 29.0359 15.9862 28.5698 16.3869 27.9715C16.7875 27.3732 17.0019 26.6696 17.0029 25.9495C17.0026 25.4708 16.9079 24.9968 16.7244 24.5547C16.5409 24.1125 16.2721 23.7109 15.9334 23.3726C15.5947 23.0343 15.1926 22.7661 14.7502 22.5832C14.3078 22.4003 13.8337 22.3063 13.355 22.3067V22.3016ZM27.6901 28.6546C26.994 28.6546 26.3135 28.4482 25.7347 28.0615C25.1559 27.6747 24.7048 27.125 24.4384 26.4819C24.172 25.8387 24.1023 25.1311 24.2381 24.4483C24.3739 23.7656 24.7091 23.1384 25.2013 22.6462C25.6936 22.1539 26.3207 21.8187 27.0035 21.6829C27.6862 21.5471 28.3939 21.6168 29.037 21.8832C29.6802 22.1496 30.2299 22.6007 30.6166 23.1795C31.0034 23.7583 31.2098 24.4388 31.2098 25.135C31.2098 25.5972 31.1187 26.0549 30.9419 26.4819C30.765 26.9089 30.5057 27.2969 30.1789 27.6237C29.8521 27.9506 29.4641 28.2098 29.037 28.3867C28.61 28.5636 28.1523 28.6546 27.6901 28.6546ZM27.6901 22.6209C27.1929 22.6209 26.7068 22.7684 26.2934 23.0446C25.8799 23.3209 25.5577 23.7135 25.3674 24.1729C25.1771 24.6323 25.1274 25.1378 25.2244 25.6254C25.3214 26.1131 25.5608 26.5611 25.9124 26.9127C26.264 27.2643 26.712 27.5037 27.1996 27.6007C27.6873 27.6977 28.1928 27.6479 28.6522 27.4576C29.1116 27.2674 29.5042 26.9451 29.7805 26.5317C30.0567 26.1183 30.2042 25.6322 30.2042 25.135C30.2048 24.8044 30.1403 24.4769 30.0142 24.1713C29.8882 23.8657 29.7031 23.588 29.4696 23.354C29.2361 23.12 28.9587 22.9344 28.6534 22.8077C28.348 22.6811 28.0207 22.6159 27.6901 22.6159V22.6209Z" fill="#00C19E"/>
<path d="M15.2079 22.1347L17.7383 19.1679L18.5036 19.8203L15.9732 22.7871L15.2079 22.1347ZM23.7996 19.0361L24.7163 18.6226L26.3559 22.2571L25.4391 22.6707L23.7996 19.0361Z" fill="#00C19E"/>
</svg>
