<svg width="40" height="36" viewBox="0 0 40 36" fill="none" xmlns="http://www.w3.org/2000/svg">
<path d="M9.11392 6.72266L0 15.8826L9.11392 24.9965L18.2278 15.8826L9.11392 6.72266ZM3.59033 15.8826L9.11392 10.359L14.6375 15.8826L9.11392 21.4062L3.59033 15.8826Z" fill="#00C19E"/>
<path d="M10.863 26.7457L20.023 35.9057L29.1829 26.7457L20.023 17.6318L10.863 26.7457ZM20.023 32.3153L14.4994 26.7917L20.023 21.2681L25.5466 26.7917L20.023 32.3153Z" fill="#00C19E"/>
<path d="M27.2036 7.27503L20.023 0.0943604L12.8423 7.27503L20.023 14.4557L27.2036 7.27503ZM20.023 2.94822L24.3498 7.27503L20.023 11.6018L15.6961 7.27503L20.023 2.94822Z" fill="#4687FF"/>
<path d="M30.8401 6.76868L21.6802 15.9286L30.8401 25.0886L40.0001 15.9286L30.8401 6.76868ZM25.3165 15.9286L30.8401 10.405L36.3637 15.9286L30.8401 21.4522L25.3165 15.9286Z" fill="#00C19E"/>
</svg>
