<svg width="16" height="16" viewBox="0 0 16 16" fill="none" xmlns="http://www.w3.org/2000/svg">
<g id="Frame">
<g id="Vector">
<path d="M12.3248 1.60791H3.67679C2.91038 1.60791 2.28479 2.23032 2.28479 2.99832V13.0191C2.28479 13.7855 2.90879 14.4095 3.67679 14.4095H12.3232C13.0896 14.4095 13.7136 13.7871 13.7136 13.0191V2.99832C13.7136 2.23032 13.0912 1.60791 12.3248 1.60791ZM12.9312 13.0175C12.9312 13.3535 12.6576 13.6255 12.3248 13.6255H3.67679C3.3424 13.6255 3.07038 13.3519 3.07038 13.0175V2.99832C3.07038 2.66391 3.3424 2.39191 3.67679 2.39191H12.3232C12.6576 2.39191 12.9296 2.6655 12.9296 2.99832V13.0175H12.9312Z" fill="black"/>
</g>
<g id="Vector_2">
<path d="M4.82719 5.47687C4.61759 5.47687 4.448 5.30728 4.448 5.09767V5.07207C4.448 4.86248 4.61759 4.69287 4.8272 4.69287C5.03681 4.69287 5.2064 4.86248 5.2064 5.07207V5.09767C5.2064 5.30728 5.0352 5.47687 4.82719 5.47687ZM4.82719 7.61607C4.61759 7.61607 4.448 7.78567 4.448 7.99528V8.01928C4.448 8.22887 4.61759 8.39848 4.8272 8.39848C5.03681 8.39848 5.2064 8.22887 5.2064 8.01926V7.99528C5.2064 7.78567 5.0352 7.61607 4.82719 7.61607ZM4.82719 10.5409C4.61759 10.5409 4.448 10.7105 4.448 10.9201V10.9441C4.448 11.1537 4.61759 11.3233 4.8272 11.3233C5.03681 11.3233 5.2064 11.1537 5.2064 10.9441V10.9201C5.2064 10.7105 5.0352 10.5409 4.82719 10.5409ZM11.1728 5.47687H6.19678C5.98719 5.47687 5.81758 5.30728 5.81758 5.09767V5.07207C5.81758 4.86248 5.98719 4.69287 6.19679 4.69287H11.1728C11.3824 4.69287 11.552 4.86248 11.552 5.07207V5.09767C11.5536 5.30728 11.3824 5.47689 11.1728 5.47689L11.1728 5.47687ZM11.1728 7.61607H6.19678C5.98719 7.61607 5.81758 7.78567 5.81758 7.99528V8.01928C5.81758 8.22887 5.98719 8.39848 6.19679 8.39848H11.1728C11.3824 8.39848 11.552 8.22887 11.552 8.01926V7.99528C11.5536 7.78567 11.3824 7.61607 11.1728 7.61607H11.1728ZM11.1728 10.5409H6.19678C5.98719 10.5409 5.81758 10.7105 5.81758 10.9201V10.9441C5.81758 11.1537 5.98719 11.3233 6.19679 11.3233H11.1728C11.3824 11.3233 11.552 11.1537 11.552 10.9441V10.9201C11.5536 10.7105 11.3824 10.5409 11.1728 10.5409H11.1728Z" fill="black"/>
</g>
</g>
</svg>
