<svg width="24" height="24" viewBox="0 0 24 24" fill="none" xmlns="http://www.w3.org/2000/svg">
<g id="Frame">
<g id="Vector">
<path d="M21.061 11.9999C21.0602 12.4378 21.0311 12.8752 20.9738 13.3094L20.9991 13.1219C20.8836 13.9739 20.6568 14.8071 20.3246 15.6002L20.396 15.4312C20.204 15.8859 19.9781 16.3256 19.7201 16.7465C19.5931 16.9535 19.4585 17.1555 19.3165 17.3523C19.2802 17.4025 19.2435 17.4523 19.2064 17.5019C19.1909 17.5225 19.1712 17.5607 19.1503 17.5757C19.1485 17.5771 19.2694 17.4236 19.2045 17.5054C19.1215 17.6104 19.0374 17.7147 18.9509 17.8169C18.6378 18.1857 18.2978 18.5309 17.9339 18.8498C17.8488 18.9243 17.7623 18.9974 17.6745 19.0691C17.6267 19.1082 17.5785 19.1473 17.5299 19.1863C17.5137 19.199 17.4973 19.2114 17.4811 19.2243C17.675 19.071 17.5458 19.1741 17.5015 19.2074C17.3034 19.356 17.0999 19.4966 16.891 19.6293C16.4266 19.9252 15.9382 20.1816 15.4308 20.3957L15.6 20.3254C14.8069 20.6576 13.9736 20.8843 13.1215 20.9999L13.309 20.9746C12.4398 21.0894 11.5593 21.0894 10.6901 20.9746L10.8776 20.9999C10.026 20.8841 9.19318 20.6571 8.4005 20.3249L8.56972 20.3952C8.11484 20.2033 7.67508 19.9773 7.25417 19.7193C7.04745 19.5923 6.84558 19.4577 6.64854 19.3157C6.59839 19.2796 6.54847 19.2428 6.49901 19.2058C6.47839 19.1903 6.44019 19.1706 6.42519 19.1498C6.42378 19.1477 6.57729 19.2686 6.4955 19.2037C6.39026 19.1207 6.2862 19.0368 6.18401 18.9501C5.81505 18.637 5.46974 18.2971 5.15089 17.9331C5.07636 17.848 5.00323 17.7616 4.93151 17.6739C4.89261 17.6261 4.85401 17.5779 4.81573 17.5293L4.77776 17.4805C4.93104 17.6741 4.82769 17.545 4.79464 17.5009C4.64573 17.3027 4.50464 17.0991 4.37136 16.8902C4.07554 16.4258 3.81917 15.9374 3.60495 15.4302L3.67643 15.5992C3.34416 14.8062 3.11738 13.973 3.0019 13.1209L3.02722 13.3084C2.91214 12.4393 2.91214 11.5587 3.02722 10.6895L3.0019 10.877C3.11738 10.025 3.34416 9.19178 3.67643 8.39875L3.60495 8.56773C3.79703 8.11292 4.02298 7.67317 4.28089 7.25218C4.40792 7.04546 4.54245 6.84359 4.68448 6.64656C4.72081 6.5964 4.75737 6.54648 4.79464 6.49703C4.81011 6.4764 4.82979 6.4382 4.85065 6.4232C4.85253 6.42179 4.73159 6.57531 4.79675 6.49351C4.87948 6.38851 4.96362 6.28421 5.05011 6.18203C5.36324 5.8132 5.70314 5.46797 6.06706 5.14914C6.15222 5.07461 6.2387 5.00148 6.32651 4.92976C6.37433 4.8907 6.42253 4.85203 6.47112 4.81375L6.51987 4.77578C6.32604 4.92906 6.45518 4.82593 6.49948 4.79265C6.69761 4.64406 6.90073 4.50304 7.10886 4.36961C7.57323 4.07365 8.06167 3.81728 8.56901 3.6032L8.3998 3.67351C9.19291 3.34123 10.0262 3.11445 10.8783 2.99898L10.6908 3.02429C11.56 2.90945 12.4405 2.90945 13.3097 3.02429L13.1222 2.99898C13.9742 3.11534 14.8073 3.34298 15.6 3.67609L15.4308 3.60578C15.8857 3.79772 16.3254 4.02367 16.7464 4.28171C16.9531 4.40843 17.1549 4.54296 17.352 4.68531C17.4021 4.7214 17.4521 4.7582 17.5015 4.79523C17.5221 4.8107 17.5603 4.83039 17.5756 4.85125C17.577 4.85336 17.4232 4.73242 17.5053 4.79734C17.6105 4.88031 17.7146 4.96421 17.8167 5.05093C18.1856 5.36398 18.531 5.70381 18.8499 6.06765C18.9244 6.15297 18.9975 6.23945 19.0692 6.32711C19.1082 6.37492 19.1467 6.42312 19.185 6.47171C19.1979 6.48789 19.2103 6.50429 19.2232 6.52046C19.0697 6.32687 19.1731 6.45601 19.2061 6.50007C19.3552 6.69789 19.4964 6.90109 19.6296 7.10968C19.9254 7.57416 20.1818 8.06258 20.396 8.56984L20.3246 8.40086C20.6572 9.19384 20.8843 10.0271 21 10.8791L20.9747 10.6916C21.0316 11.1254 21.0604 11.5624 21.061 11.9999C21.061 12.3702 21.386 12.7251 21.7688 12.708C22.1515 12.6909 22.4766 12.3984 22.4766 11.9999C22.4731 9.85351 21.8096 7.70664 20.5568 5.9589C19.3077 4.20873 17.5586 2.87711 15.5391 2.13882C13.5 1.39515 11.2069 1.32906 9.12354 1.92414C7.11683 2.49742 5.27604 3.68734 3.94972 5.30125C3.25309 6.14822 2.68836 7.09554 2.27464 8.11117C1.86636 9.1082 1.6355 10.1687 1.553 11.2417C1.38893 13.3862 1.91769 15.5835 3.03378 17.4215C4.1119 19.1969 5.72909 20.6619 7.62565 21.5184C8.6483 21.9809 9.73673 22.2814 10.8518 22.409C11.9447 22.537 13.055 22.4746 14.1331 22.2569C16.1881 21.8437 18.1114 20.7669 19.5593 19.2538C21.0125 17.7353 22.0156 15.7717 22.3367 13.6902C22.4261 13.1313 22.4731 12.5664 22.4773 12.0004C22.4773 11.6303 22.1513 11.2755 21.7695 11.2926C21.3877 11.3097 21.0614 11.6036 21.061 11.9999Z" fill="white"/>
</g>
<g id="Vector_2">
<path d="M12.005 5.93907C11.6241 5.95618 11.3018 6.24821 11.3018 6.64219L11.3019 14.8629C11.3019 15.1207 11.2983 15.3785 11.2986 15.6377L10.1422 14.4994L9.80677 14.1689C9.54427 13.9111 9.0706 13.8877 8.81232 14.1689C8.55404 14.4502 8.53224 14.8877 8.81232 15.1634L11.2161 17.5306L11.5517 17.861C11.8205 18.1256 12.2783 18.1343 12.5461 17.861L14.8679 15.4957L15.1932 15.1643C15.451 14.9016 15.4744 14.4284 15.1932 14.1698C14.9119 13.9113 14.4739 13.8886 14.1987 14.1698L12.7081 15.6888L12.7081 7.79578C12.7081 7.41703 12.7158 7.03735 12.7081 6.65836L12.7081 6.64219C12.7081 6.27446 12.3847 5.92219 12.005 5.93907Z" fill="white"/>
</g>
</g>
</svg>
