<svg width="22" height="24" viewBox="0 0 22 24" fill="none" xmlns="http://www.w3.org/2000/svg">
<g id="Frame">
<g id="Vector">
<path fill-rule="evenodd" clip-rule="evenodd" d="M5.75 3.16925H13.4391C14.1933 3.16925 14.9167 3.49796 15.45 4.08307L18.2608 7.16699C18.7942 7.7521 19.0938 8.54568 19.0938 9.37316V17.8093C19.0938 19.5324 17.8205 20.9293 16.25 20.9293H16.0312V15.8893C16.0312 14.4312 14.954 13.2493 13.625 13.2493H8.375C7.04607 13.2493 5.96875 14.4312 5.96875 15.8893V20.9293H5.75C4.17944 20.9293 2.90625 19.5324 2.90625 17.8093V6.28925C2.90625 4.56612 4.17945 3.16925 5.75 3.16925ZM16.25 22.3693C18.5455 22.3693 20.4062 20.3276 20.4062 17.8093V9.37316C20.4062 8.16377 19.9684 7.00392 19.189 6.14875L16.378 3.06484C15.5986 2.20967 14.5415 1.72925 13.4391 1.72925H5.75C3.45457 1.72925 1.59375 3.77083 1.59375 6.28925V17.8093C1.59375 20.3276 3.45457 22.3693 5.75 22.3693H16.25ZM14.7188 20.9293H7.28125V15.8893C7.28125 15.2265 7.77093 14.6893 8.375 14.6893H13.625C14.2291 14.6893 14.7188 15.2265 14.7188 15.8893V20.9293ZM7.71875 7.24925C7.71875 6.8516 8.01257 6.52925 8.375 6.52925H13.625C13.9874 6.52925 14.2812 6.8516 14.2812 7.24925C14.2812 7.64689 13.9874 7.96925 13.625 7.96925H8.375C8.01257 7.96925 7.71875 7.64689 7.71875 7.24925Z" fill="#00C19E"/>
</g>
</g>
</svg>
