<svg width="24" height="24" viewBox="0 0 24 24" fill="none" xmlns="http://www.w3.org/2000/svg">
<g id="Frame">
<g id="Vector">
<path fill-rule="evenodd" clip-rule="evenodd" d="M12.8573 12.7587L13.2989 13.2224C13.6336 13.5738 14.1763 13.5738 14.511 13.2224C14.8458 12.8709 14.8458 12.301 14.511 11.9495L13.2797 10.6566C12.573 9.91469 11.4274 9.91469 10.7206 10.6566L9.4893 11.9495C9.15456 12.301 9.15456 12.8709 9.4893 13.2224C9.82404 13.5738 10.3668 13.5738 10.7015 13.2224L11.143 12.7587L11.143 17.0001C11.143 17.4972 11.5268 17.9001 12.0002 17.9001C12.4735 17.9001 12.8573 17.4972 12.8573 17.0001L12.8573 12.7587Z" fill="#00C19E"/>
</g>
<g id="Vector_2">
<path fill-rule="evenodd" clip-rule="evenodd" d="M4.24394 3.23934C5.27413 1.8872 6.83384 1.1001 8.48295 1.1001H15.5173C17.1664 1.1001 18.7261 1.8872 19.7562 3.23934L21.1914 5.12309C21.9615 6.13376 22.381 7.38954 22.381 8.68385V17.2001C22.381 20.3482 19.9506 22.9001 16.9525 22.9001H7.04771C4.0496 22.9001 1.61914 20.3482 1.61914 17.2001V8.68385C1.61914 7.38954 2.03866 6.13376 2.80871 5.12309L4.24394 3.23934ZM8.48295 2.9001C7.3546 2.9001 6.28745 3.43865 5.58258 4.36379L4.14734 6.24754C3.62047 6.93906 3.33343 7.79827 3.33343 8.68385V17.2001C3.33343 19.354 4.99636 21.1001 7.04771 21.1001H16.9525C19.0038 21.1001 20.6667 19.354 20.6667 17.2001V8.68385C20.6667 7.79827 20.3798 6.93906 19.8528 6.24754L18.4176 4.36379C17.7127 3.43865 16.6456 2.9001 15.5173 2.9001H8.48295Z" fill="#00C19E"/>
</g>
<g id="Vector_3">
<path fill-rule="evenodd" clip-rule="evenodd" d="M2.57141 6.99985C2.57141 6.5028 2.95517 6.09985 3.42855 6.09985H20.5714C21.0448 6.09985 21.4286 6.5028 21.4286 6.99985C21.4286 7.49692 21.0448 7.89985 20.5714 7.89985H3.42855C2.95517 7.89985 2.57141 7.49692 2.57141 6.99985Z" fill="#00C19E"/>
</g>
</g>
</svg>
